<svg xmlns="http://www.w3.org/2000/svg" width="580.1" height="139.5" viewBox="0 0 580.1 139.5">
  <path id="Path_1" data-name="Path 1" d="M45.3.5Q33.4.5,24.6-3.85A31.33,31.33,0,0,1,11.1-16.2,36.038,36.038,0,0,1,6.4-34.8q0-14.7,5.55-26.1A43.142,43.142,0,0,1,27-78.55,37.571,37.571,0,0,1,48.1-84.8q10.8,0,16.4,5.55T70.1-64.6q0,6.1-2.15,9.8a6.758,6.758,0,0,1-6.15,3.7,6.786,6.786,0,0,1-4.4-1.3,4.61,4.61,0,0,1-1.6-3.8,24.175,24.175,0,0,1,.4-3.3,25.813,25.813,0,0,0,.6-4.8q0-9.1-9.7-9.1a21.3,21.3,0,0,0-12.6,4.3q-6,4.3-9.7,12.65T21.1-36.6q0,12,6.7,18.55T47.6-11.5a54.455,54.455,0,0,0,13.15-1.65A102.229,102.229,0,0,0,75.5-18.2a7.036,7.036,0,0,1,2.5-.6,2.692,2.692,0,0,1,2.4,1.2,5.487,5.487,0,0,1,.8,3.1q0,6.1-6.6,9A68.731,68.731,0,0,1,59.85-.95,78.217,78.217,0,0,1,45.3.5ZM86.5-53.2q-4.2,0-6.3-1.95a7.07,7.07,0,0,1-2.1-5.45,7.387,7.387,0,0,1,2.75-5.85A10.176,10.176,0,0,1,87.7-68.8a9.455,9.455,0,0,1,6,1.8A6.1,6.1,0,0,1,96-61.9a8.134,8.134,0,0,1-2.6,6.35A9.9,9.9,0,0,1,86.5-53.2ZM85.7.5q-6.5,0-9.45-4.6T73.3-16.3a74.673,74.673,0,0,1,1.15-11.55A107.843,107.843,0,0,1,77.4-41a8.473,8.473,0,0,1,2.4-4.4,7.69,7.69,0,0,1,4.8-1.2q5.1,0,5.1,3.4,0,2.5-1.9,11.6-2.4,11-2.4,14.9a10.548,10.548,0,0,0,.8,4.6,2.784,2.784,0,0,0,2.7,1.6q1.8,0,4.5-2.5a89.505,89.505,0,0,0,7.2-7.9,3.51,3.51,0,0,1,2.7-1.4,2.311,2.311,0,0,1,2.05,1.2,6.2,6.2,0,0,1,.75,3.3,9.2,9.2,0,0,1-1.9,6.2Q94.3.5,85.7.5Zm31.4,0q-9.8,0-15.25-5.55T96.4-19.7a30.139,30.139,0,0,1,3.2-14.2,24.373,24.373,0,0,1,8.3-9.4,19.4,19.4,0,0,1,10.7-3.3q5.5,0,8.55,3.25A11.712,11.712,0,0,1,130.2-35a12.938,12.938,0,0,1-1.85,7.1A5.561,5.561,0,0,1,123.5-25a4.812,4.812,0,0,1-3.05-.9,3,3,0,0,1-1.15-2.5,7.472,7.472,0,0,1,.2-1.6q.2-.9.3-1.3a8.885,8.885,0,0,0,.5-2.8,2.832,2.832,0,0,0-.65-2,2.4,2.4,0,0,0-1.85-.7,5.957,5.957,0,0,0-4.3,2.05,14.593,14.593,0,0,0-3.2,5.55,23.613,23.613,0,0,0-1.2,7.7q0,11.6,10.1,11.6a17.85,17.85,0,0,0,8.85-2.75,36.074,36.074,0,0,0,9.35-8.25,3.51,3.51,0,0,1,2.7-1.4,2.311,2.311,0,0,1,2.05,1.2,6.2,6.2,0,0,1,.75,3.3,9.688,9.688,0,0,1-1.9,6.2,32.437,32.437,0,0,1-11.25,8.95A29.134,29.134,0,0,1,117.1.5Zm73.2-22.8a2.311,2.311,0,0,1,2.05,1.2,6.2,6.2,0,0,1,.75,3.3,9.2,9.2,0,0,1-1.9,6.2,52.74,52.74,0,0,1-9.45,8.7A18.78,18.78,0,0,1,170.7.5q-5.1,0-7.7-2.95T160.4-11a62.432,62.432,0,0,1,1.4-10,51.751,51.751,0,0,0,1.3-8.7q0-1.6-1.1-1.6-1.3,0-3.7,3.35a49.137,49.137,0,0,0-4.8,8.85,71.831,71.831,0,0,0-3.9,11.6q-1.9,8-9.4,8-3,0-3.95-2.15T135.3-9.4q0-3.2.1-5.1l.1-8a173.2,173.2,0,0,1,3.15-32.1q3.15-16.7,9.3-28.05T162.7-94a8.786,8.786,0,0,1,7.45,3.95Q173-86.1,173-79.8q0,10.1-5.9,20.95T147.9-33.5q-.3,5.2-.3,10.7a57.39,57.39,0,0,1,7.35-13.85,28.684,28.684,0,0,1,8-7.65,14.639,14.639,0,0,1,7.25-2.3q6.5,0,6.5,6.5,0,3.9-2.2,14.1-1.9,8.7-1.9,11.5,0,4,2.9,4,2,0,4.75-2.45a80.258,80.258,0,0,0,7.35-7.95A3.51,3.51,0,0,1,190.3-22.3ZM160.6-84.1q-1.8,0-4,5.15a87.265,87.265,0,0,0-4.25,13.9A185.625,185.625,0,0,0,149-46a71.563,71.563,0,0,0,10.25-15.9q4.05-8.6,4.05-15.6a13.387,13.387,0,0,0-.7-4.9Q161.9-84.1,160.6-84.1ZM220-46.6a6.13,6.13,0,0,1,3.2.6,2.224,2.224,0,0,1,.9,2q0,2.4-2.6,17.1-2.3,14.1-2.7,16.7-3.7,25.7-10.2,40.7t-17.3,15a11.327,11.327,0,0,1-8.3-3.15,11.062,11.062,0,0,1-3.2-8.25,23.786,23.786,0,0,1,2.15-9.6q2.15-4.9,8-11.25A132.532,132.532,0,0,1,206.5-1.3l.3-2.3q.7-3.7,1.6-10.6-2,7.2-5.6,10.95T195.2.5a8.594,8.594,0,0,1-7.35-4.15A17.862,17.862,0,0,1,185-14a87.32,87.32,0,0,1,1-13.75A86.314,86.314,0,0,1,189.3-41a8.365,8.365,0,0,1,2.8-4.3q1.8-1.3,5.7-1.3a4.936,4.936,0,0,1,3.05.7,2.562,2.562,0,0,1,.85,2.1,41.514,41.514,0,0,1-1.1,5.4q-1,3.7-1.6,6.7-.8,4.1-1.4,7.85a40.493,40.493,0,0,0-.6,6.15q0,3.8,2.1,3.8,1.5,0,3.75-3a44.09,44.09,0,0,0,4.8-9.1,121.611,121.611,0,0,0,4.95-15,7.864,7.864,0,0,1,2.45-4.3A7.908,7.908,0,0,1,220-46.6ZM192.4,35.8q2.5,0,5.6-5.8t6.2-19.3q-7.7,6.5-11.15,11.85T189.6,31.9a5.439,5.439,0,0,0,.65,2.8A2.3,2.3,0,0,0,192.4,35.8ZM282.4.5a97.51,97.51,0,0,1-13.1-1q-4-.5-5.5-2.1t-1.3-5.2a239.18,239.18,0,0,1,3.3-24.45q2.6-14.55,6.3-28.05a5.2,5.2,0,0,1,2.8-3.5,12.876,12.876,0,0,1,5.5-1q6.1,0,6.1,3.4a10.275,10.275,0,0,1-.6,3.2,187.115,187.115,0,0,0-5.2,21.45A257.055,257.055,0,0,0,277-11.1q3,.3,6.8.3,17.5,0,26.15-10.6t8.65-28.3q0-11.9-6.8-18.4t-19.2-6.5a51.951,51.951,0,0,0-15.85,2.5,58.131,58.131,0,0,0-14.15,6.6,4.825,4.825,0,0,1-2.8.9,3.12,3.12,0,0,1-2.7-1.45,6.1,6.1,0,0,1-1-3.55,8.585,8.585,0,0,1,.8-3.95,8.021,8.021,0,0,1,2.7-2.85,52.1,52.1,0,0,1,16.2-7.15A70.208,70.208,0,0,1,293.7-86q12.2,0,21.1,4.25A30.87,30.87,0,0,1,328.5-69.3q4.8,8.2,4.8,19.8,0,15.1-6,26.35A41.869,41.869,0,0,1,309.8-5.7Q298.3.5,282.4.5ZM414.6-30.4a3.509,3.509,0,0,1,1-.1,2.773,2.773,0,0,1,2.3,1,4.2,4.2,0,0,1,.8,2.7,8.484,8.484,0,0,1-1.2,4.85,6.794,6.794,0,0,1-3.6,2.55,31.419,31.419,0,0,1-9.8,1.5,28.074,28.074,0,0,1-8.3-1.2q-2.9,4.7-6.4,9.7-4,5.7-6.85,7.8A10.6,10.6,0,0,1,376.1.5a6.787,6.787,0,0,1-6.05-3.1Q368-5.7,367.5-12.8l-.5-7.3a96.011,96.011,0,0,1-5.55,12.8,17.994,17.994,0,0,1-4.9,6.1A9.834,9.834,0,0,1,350.8.5a7.568,7.568,0,0,1-6.45-3.2Q342-5.9,341.4-12.8q-1.2-14-1.2-24.5v-3.5q.1-3.3,1.8-4.6a8.332,8.332,0,0,1,5.1-1.3,5.537,5.537,0,0,1,3.85,1.15,5.04,5.04,0,0,1,1.25,3.85q0,11.5,1.4,29.9,6.8-14.3,12.5-29.8a8.132,8.132,0,0,1,2.65-4.05,6.528,6.528,0,0,1,3.75-1.05q2.7,0,3.75,1.1t1.05,3.9q0,11.5,1.4,29.9,6-8.9,9-14.2a14.841,14.841,0,0,1-1.5-6.9,15.386,15.386,0,0,1,1.5-6.6,13.841,13.841,0,0,1,4.1-5.2,9.423,9.423,0,0,1,5.9-2,5.958,5.958,0,0,1,4.7,2.05,8.756,8.756,0,0,1,1.8,5.95,27.441,27.441,0,0,1-2.4,10.3,71.212,71.212,0,0,0,10.1-1.5Zm46.4-.3a2.182,2.182,0,0,1,2,1.3,6.916,6.916,0,0,1,.7,3.3q0,4.8-2.9,5.7A45.528,45.528,0,0,1,447.6-18a24.96,24.96,0,0,1-7.5,13.45A18.451,18.451,0,0,1,427.4.5a17.746,17.746,0,0,1-10.25-2.9,18.419,18.419,0,0,1-6.45-7.7,24.659,24.659,0,0,1-2.2-10.4,30.539,30.539,0,0,1,2.9-13.55,22.782,22.782,0,0,1,8-9.3,20.147,20.147,0,0,1,11.3-3.35,15.573,15.573,0,0,1,12.25,5.25A22.486,22.486,0,0,1,448.4-28.5a60.61,60.61,0,0,0,11.2-2A5.877,5.877,0,0,1,461-30.7ZM428.2-10.1a7.252,7.252,0,0,0,5.55-2.6,14.434,14.434,0,0,0,3.15-7.5,13.805,13.805,0,0,1-4.75-5.5,16.282,16.282,0,0,1-1.65-7.2,17.328,17.328,0,0,1,.3-3.2h-.5q-4,0-6.65,3.85T421-21.4q0,5.5,2.15,8.4A6.208,6.208,0,0,0,428.2-10.1ZM462.2.5q-3.8,0-5.35-4T455.3-16.3A81.437,81.437,0,0,1,459-41a7.523,7.523,0,0,1,2.95-4.25,10.4,10.4,0,0,1,5.75-1.35,5.635,5.635,0,0,1,2.8.5,2.065,2.065,0,0,1,.8,1.9,38.121,38.121,0,0,1-1.5,7.2q-1,4-1.6,7a71.737,71.737,0,0,0-1,7.4,56.86,56.86,0,0,1,7.4-14,29.017,29.017,0,0,1,8.05-7.7,14.639,14.639,0,0,1,7.25-2.3q6.5,0,6.5,6.5a50.242,50.242,0,0,1-.9,6.3,36.843,36.843,0,0,0-.8,5q0,3.5,2.5,3.5,2.8,0,7.2-4.4a3.827,3.827,0,0,1,2.7-1.3,2.33,2.33,0,0,1,2.05,1.15,5.509,5.509,0,0,1,.75,3.05,8.068,8.068,0,0,1-2,5.8,27.093,27.093,0,0,1-6.55,4.95A16.33,16.33,0,0,1,493.4-14q-5.3,0-8.05-2.7A9.764,9.764,0,0,1,482.6-24a15.264,15.264,0,0,1,.3-3q.2-2,.2-2.7,0-1.6-1.1-1.6-1.5,0-3.95,3.35a47.012,47.012,0,0,0-4.85,8.85,71.83,71.83,0,0,0-3.9,11.6q-1.1,4.7-2.55,6.35A5.753,5.753,0,0,1,462.2.5Zm83-22.8a2.311,2.311,0,0,1,2.05,1.2,6.2,6.2,0,0,1,.75,3.3,9.2,9.2,0,0,1-1.9,6.2,36.533,36.533,0,0,1-10.45,8.3A28.989,28.989,0,0,1,521.2.5q-10.5,0-16.3-5.7t-5.8-15.6A28.937,28.937,0,0,1,502-33.65a23.745,23.745,0,0,1,8.05-9.45,20.245,20.245,0,0,1,11.65-3.5,12.672,12.672,0,0,1,9.3,3.45q3.5,3.45,3.5,9.35a16.168,16.168,0,0,1-4.95,11.85Q524.6-17,512.8-14.1q2.5,4.6,9.5,4.6,4.5,0,10.25-3.15a33.852,33.852,0,0,0,9.95-8.25A3.51,3.51,0,0,1,545.2-22.3ZM520-36.8q-3.7,0-6.25,4.3a20.042,20.042,0,0,0-2.55,10.4v.2a22.724,22.724,0,0,0,9.3-4.2,8.253,8.253,0,0,0,3.4-6.5,4.348,4.348,0,0,0-1.05-3.05A3.668,3.668,0,0,0,520-36.8Zm62.4,26.4q4.1.8,4.1,4.5a5.779,5.779,0,0,1-2.25,4.45A9.561,9.561,0,0,1,577.8.5a16.1,16.1,0,0,1-11.75-4.45A15.566,15.566,0,0,1,561.5-15.6q0-3.9,4-5.6a17.846,17.846,0,0,0,6.3-4.05,7.648,7.648,0,0,0,1.9-5.25,4.141,4.141,0,0,0-.75-2.7,2.318,2.318,0,0,0-1.85-.9q-2.7,0-5.95,3.9a44.466,44.466,0,0,0-6.05,10.05A72.008,72.008,0,0,0,554.7-7.5q-1.1,4.7-2.55,6.35A5.753,5.753,0,0,1,547.6.5a5.022,5.022,0,0,1-4.55-2.25A16.38,16.38,0,0,1,541.1-8.7q-.5-4.7-.5-13.8a173.2,173.2,0,0,1,3.15-32.1q3.15-16.7,9.3-28.05T567.8-94a8.786,8.786,0,0,1,7.45,3.95q2.85,3.95,2.85,10.25,0,10.1-5.9,20.95T553-33.5q-.3,5.2-.3,10.7,4.8-12.5,11-18.15t11.6-5.65a10.293,10.293,0,0,1,8.05,3.4,12.119,12.119,0,0,1,3.05,8.4,19.057,19.057,0,0,1-2.8,10.1q-2.8,4.6-9.6,8.2a5.957,5.957,0,0,0,2.45,4.15A18.609,18.609,0,0,0,582.4-10.4ZM565.7-84.1q-1.8,0-4,5.15a87.276,87.276,0,0,0-4.25,13.9A185.625,185.625,0,0,0,554.1-46a71.562,71.562,0,0,0,10.25-15.9q4.05-8.6,4.05-15.6a13.387,13.387,0,0,0-.7-4.9Q567-84.1,565.7-84.1Z" transform="translate(-6.4 94)" fill="#876543"/>
</svg>
